<?xml version="1.0" encoding="UTF-8"?>
<svg id="Layer_1" data-name="Layer 1" xmlns="http://www.w3.org/2000/svg" viewBox="0 0 313.76 116.13">
  <path d="m92.71,85.66c-4.7-6.13-5.9-14.55-3.58-25.27,1.77-8.4,5.82-15.19,12.14-20.35,6.32-5.17,14.11-7.75,23.36-7.75,10.33,0,17.83,3.04,22.49,9.13s5.84,14.53,3.53,25.32c-1.77,8.33-5.82,15.07-12.14,20.24-6.4,5.24-14.15,7.86-23.24,7.86-10.33,0-17.85-3.06-22.55-9.19Zm24.05-5.26c3.93,0,7.32-1.39,10.18-4.16,2.85-2.7,4.82-6.63,5.9-11.79,1.16-5.55.87-9.87-.87-12.95s-4.68-4.62-8.85-4.62c-3.93,0-7.3,1.41-10.12,4.22-2.81,2.81-4.8,6.76-5.96,11.85-1.16,5.63-.81,9.94,1.04,12.95,1.85,3.01,4.74,4.51,8.67,4.51Z"/>
  <path d="m177.57,46.98c-.37,0-.69.26-.77.62l-5.3,24.93c-1,4.93.77,7.4,5.32,7.4h3.65c.5,0,.87.46.77.95l-2.57,11.91c-.07.33-.36.58-.69.62-3.16.34-5.4.52-6.71.52-15.03,0-20.97-6.94-17.81-20.81l5.35-25.18c.1-.49-.27-.95-.77-.95h-6.96c-.5,0-.87-.46-.77-.95l2.44-11.61c.08-.36.4-.62.77-.62h7.63c.37,0,.69-.26.77-.63l3.44-16.44c.08-.36.4-.63.77-.63h16.43c.5,0,.87.46.77.95l-3.4,15.79c-.11.49.27.95.77.95h9.62c.5,0,.87.46.77.95l-2.44,11.61c-.08.36-.4.62-.77.62h-10.29Z"/>
  <path d="m233.27,34.91l-3.18,15.04c-.07.33-.36.57-.7.57h-4.04c-10.56,0-16.96,4.4-19.2,15.19h-.12l-5.78,27.18c-.07.33-.36.57-.7.57h-16.57c-.46,0-.8-.42-.7-.87l12.41-58.23c.07-.33.36-.57.7-.57h16.1c.46,0,.8.42.7.87l-1.19,5.55c-.16.73.77,1.18,1.25.6,4.37-5.3,10.16-6.94,17.35-6.94.2,0,1.2.06,2.98.18.44.03.75.44.66.87Z"/>
  <path d="m223.95,92.74l12.47-58.48c.06-.27.3-.47.58-.47h16.67c.46,0,.8.42.7.87l-12.41,58.22c-.07.33-.36.57-.7.57h-16.72c-.38,0-.66-.35-.58-.72Zm16.41-74.93h0c.73-3.55,3.85-6.1,7.48-6.1h1.65c4.83,0,8.44,4.43,7.48,9.16h0c-.73,3.55-3.85,6.1-7.48,6.1h-1.65c-4.83,0-8.44-4.43-7.48-9.16Z"/>
  <path d="m310.1,41.66c3.85,6.17,4.66,14.38,2.43,24.63-1.77,8.56-5.36,15.42-10.75,20.58-5.4,5.32-12.03,7.98-19.89,7.98-6.68,0-11.7-2.1-15.05-6.31-.42-.53-1.26-.34-1.4.32l-5.73,26.64c-.08.37-.4.63-.78.63h-16.4c-.51,0-.89-.47-.78-.97l17.23-80.73c.08-.37.4-.63.78-.63h15.94c.51,0,.89.47.78.96l-.36,1.73c-.15.73.69,1.24,1.28.78,4.17-3.24,9.02-4.86,14.55-4.86,8.17,0,14.22,3.08,18.15,9.25Zm-16.13,9.54c-1.66-2.89-4.57-4.34-8.73-4.34-8.17,0-13.49,5.51-15.96,16.54-1.39,5.63-1.21,9.89.52,12.78,1.08,1.8,2.68,3.03,4.81,3.71,5.34,1.7,11.34,0,14.98-4.26,2.41-2.82,4.12-6.74,5.12-11.77,1.16-5.55.91-9.77-.75-12.66Z"/>
  <path d="m88.43,49.88l-10.16-6.77c-.51-.34-1.19-.21-1.54.29-1.38,2-5.19,6.75-11.41,9.08-6.83,2.56-15.84,1.48-18.34,1.11-.41-.06-.82.11-1.07.45l-6.91,9.51c-.38.52-.25,1.26.3,1.6,1.48.94,4.5,2.63,8.02,3.34,2.81.56,6.58-.14,9.33-.86,1.09-.29,1.88,1.05,1.09,1.86-3.05,3.12-8.7,7.72-16.42,9-6.59,1.1-14.97-2.58-19-7-4.87-5.34-6.05-14.87-4-22,1.76-6.1,5.66-10.61,7.27-12.29.4-.42,1.05-.45,1.5-.1,11.36,8.91,25.64,14.47,39.31,7.15,3.02-1.61,5.73-4.02,7.1-7.15,1.14-2.61,1.3-5.59.75-8.38-1.12-5.73-5.09-10.4-10.29-12.91-6.27-3.02-12.72-3.9-19.65-3.33-6.33.53-9.35,1.72-12.8,2.68-.72.2-1.45-.34-1.43-1.09.05-1.7.88-4,1.37-5.21.2-.49.03-1.05-.41-1.34L20.37.2c-.56-.38-1.33-.19-1.63.41-5.88,11.84-3.01,19.73-1.83,22.11.23.46.1,1.01-.3,1.34-25.17,21.04-19.1,54.51.72,65.41,15.9,8.74,38.76,6.39,51.48-10.28.67-.87,2.03-.38,2.01.72-.23,9.33,5.45,13.74,7.66,15.1.48.29,1.09.18,1.45-.25l7.61-9.28c.28-.34.32-.8.14-1.2-7.54-15.7-.9-29.37,1.12-32.91.29-.51.14-1.16-.35-1.48Zm-40.11-24.47c2.54-.02,5.08.54,7.29,1.75.9.49,1.8,1.13,2.2,2.08.63,1.47-.19,3.26-1.53,4.12s-3.06.93-4.63.63c-3.82-.73-7.73-2.49-10.57-5.18-.57-.54-.44-1.49.27-1.83,2.14-1.01,4.56-1.55,6.96-1.57Z"/>
</svg>